<svg width="25" height="24" viewBox="0 0 25 24" fill="none" xmlns="http://www.w3.org/2000/svg">
<g id="icons/ic_info">
<g id="shape">
<path d="M13.25 16.5V10.5H10.25V12H11.75V16.5H9.50001V18H15.5V16.5H13.25Z" fill="white"/>
<path d="M12.5 6.00001C12.2775 6.00001 12.06 6.06599 11.875 6.1896C11.69 6.31322 11.5458 6.48892 11.4606 6.69449C11.3755 6.90005 11.3532 7.12625 11.3966 7.34448C11.44 7.56271 11.5472 7.76317 11.7045 7.9205C11.8618 8.07784 12.0623 8.18498 12.2805 8.22839C12.4988 8.2718 12.725 8.24952 12.9305 8.16437C13.1361 8.07922 13.3118 7.93503 13.4354 7.75002C13.559 7.56502 13.625 7.34751 13.625 7.12501C13.625 6.82664 13.5065 6.54049 13.2955 6.32951C13.0845 6.11853 12.7984 6.00001 12.5 6.00001Z" fill="white"/>
<path d="M12.5 22.5C10.4233 22.5 8.39323 21.8842 6.66652 20.7304C4.9398 19.5767 3.59399 17.9368 2.79927 16.0182C2.00455 14.0996 1.79661 11.9884 2.20176 9.95156C2.6069 7.91476 3.60693 6.04383 5.07538 4.57538C6.54383 3.10693 8.41476 2.1069 10.4516 1.70176C12.4884 1.29661 14.5996 1.50455 16.5182 2.29927C18.4368 3.09399 20.0767 4.4398 21.2304 6.16652C22.3842 7.89323 23 9.9233 23 12C23 14.7848 21.8938 17.4555 19.9246 19.4246C17.9555 21.3938 15.2848 22.5 12.5 22.5ZM12.5 3C10.72 3 8.97992 3.52785 7.49987 4.51678C6.01983 5.50571 4.86628 6.91132 4.18509 8.55585C3.5039 10.2004 3.32567 12.01 3.67294 13.7558C4.0202 15.5016 4.87737 17.1053 6.13604 18.364C7.39472 19.6226 8.99836 20.4798 10.7442 20.8271C12.49 21.1743 14.2996 20.9961 15.9442 20.3149C17.5887 19.6337 18.9943 18.4802 19.9832 17.0001C20.9722 15.5201 21.5 13.78 21.5 12C21.5 9.61306 20.5518 7.32387 18.864 5.63604C17.1761 3.94822 14.887 3 12.5 3Z" fill="white"/>
</g>
</g>
</svg>
