<svg width="62" height="62" viewBox="0 0 62 62" fill="none" xmlns="http://www.w3.org/2000/svg">
<g id="icons/ic_locked">
<path id="shape" d="M46.5 27.125H42.625V15.5C42.625 12.4169 41.4002 9.45999 39.2201 7.27988C37.04 5.09977 34.0831 3.875 31 3.875C27.9169 3.875 24.96 5.09977 22.7799 7.27988C20.5998 9.45999 19.375 12.4169 19.375 15.5V27.125H15.5C14.4723 27.125 13.4867 27.5333 12.76 28.26C12.0333 28.9867 11.625 29.9723 11.625 31V54.25C11.625 55.2777 12.0333 56.2633 12.76 56.99C13.4867 57.7167 14.4723 58.125 15.5 58.125H46.5C47.5277 58.125 48.5133 57.7167 49.24 56.99C49.9667 56.2633 50.375 55.2777 50.375 54.25V31C50.375 29.9723 49.9667 28.9867 49.24 28.26C48.5133 27.5333 47.5277 27.125 46.5 27.125ZM23.25 15.5C23.25 13.4446 24.0665 11.4733 25.5199 10.0199C26.9733 8.56651 28.9446 7.75 31 7.75C33.0554 7.75 35.0267 8.56651 36.4801 10.0199C37.9335 11.4733 38.75 13.4446 38.75 15.5V27.125H23.25V15.5ZM46.5 54.25H15.5V31H46.5V54.25Z" fill="white"/>
</g>
</svg>
