<svg width="24" height="24" viewBox="0 0 24 24" fill="none" xmlns="http://www.w3.org/2000/svg">
<g id="start adornment">
<g id="shape">
<path d="M16.8044 8.27583C17.4009 8.27583 17.8844 7.79229 17.8844 7.19583C17.8844 6.59936 17.4009 6.11583 16.8044 6.11583C16.2079 6.11583 15.7244 6.59936 15.7244 7.19583C15.7244 7.79229 16.2079 8.27583 16.8044 8.27583Z" fill="#212B36"/>
<path d="M12.0005 7.37833C11.0864 7.37833 10.1928 7.64938 9.43281 8.15722C8.67279 8.66505 8.08042 9.38685 7.73062 10.2313C7.38081 11.0758 7.28929 12.0051 7.46762 12.9016C7.64595 13.7981 8.08612 14.6216 8.73246 15.268C9.37881 15.9143 10.2023 16.3545 11.0988 16.5328C11.9953 16.7112 12.9246 16.6196 13.7691 16.2698C14.6136 15.92 15.3354 15.3277 15.8432 14.5676C16.3511 13.8076 16.6221 12.9141 16.6221 12C16.6221 10.7742 16.1352 9.5987 15.2685 8.73198C14.4017 7.86525 13.2262 7.37833 12.0005 7.37833ZM12.0005 15C11.4071 15 10.8271 14.824 10.3338 14.4944C9.84041 14.1647 9.45589 13.6962 9.22883 13.148C9.00176 12.5998 8.94235 11.9966 9.05811 11.4147C9.17386 10.8328 9.45959 10.2982 9.87914 9.87866C10.2987 9.4591 10.8333 9.17338 11.4152 9.05762C11.9971 8.94187 12.6003 9.00128 13.1485 9.22834C13.6967 9.4554 14.1652 9.83992 14.4949 10.3333C14.8245 10.8266 15.0005 11.4066 15.0005 12C15.0005 12.7956 14.6844 13.5587 14.1218 14.1213C13.5592 14.6839 12.7961 15 12.0005 15Z" fill="#212B36"/>
<path d="M12 4.62165C14.4031 4.62165 14.6878 4.6308 15.6368 4.67415C16.2075 4.68094 16.7728 4.78577 17.308 4.98405C17.6961 5.13381 18.0486 5.36316 18.3428 5.65732C18.6369 5.95149 18.8663 6.30398 19.016 6.6921C19.2143 7.22731 19.3191 7.79261 19.3259 8.36333C19.3692 9.3123 19.3784 9.597 19.3784 12.0001C19.3784 14.4031 19.3693 14.6879 19.3259 15.6368C19.3191 16.2075 19.2143 16.7728 19.016 17.3081C18.8663 17.6962 18.6369 18.0487 18.3428 18.3428C18.0486 18.637 17.6961 18.8663 17.308 19.0161C16.7728 19.2144 16.2075 19.3192 15.6368 19.326C14.6879 19.3693 14.4033 19.3785 12 19.3785C9.5967 19.3785 9.31215 19.3694 8.36325 19.326C7.79253 19.3192 7.22723 19.2144 6.69202 19.0161C6.3039 18.8663 5.95142 18.637 5.65725 18.3428C5.36308 18.0487 5.13374 17.6962 4.98397 17.3081C4.78569 16.7728 4.68087 16.2075 4.67408 15.6368C4.6308 14.6879 4.62157 14.4031 4.62157 12.0001C4.62157 9.597 4.63073 9.3123 4.67408 8.36333C4.68087 7.79261 4.78569 7.22731 4.98397 6.6921C5.13373 6.30396 5.36307 5.95146 5.65724 5.65728C5.95141 5.3631 6.30389 5.13375 6.69202 4.98397C7.22723 4.78569 7.79253 4.68087 8.36325 4.67408C9.31222 4.6308 9.59692 4.62165 12 4.62165ZM12 3C9.55575 3 9.24922 3.01035 8.2893 3.05415C7.54279 3.06914 6.80422 3.21059 6.105 3.4725C5.50705 3.70374 4.96401 4.05735 4.51068 4.51068C4.05735 4.96401 3.70374 5.50705 3.4725 6.105C3.21055 6.80434 3.06909 7.54304 3.05415 8.28968C3.01035 9.24923 3 9.55575 3 12C3 14.4443 3.01035 14.7508 3.05415 15.7107C3.0691 16.4573 3.21056 17.196 3.4725 17.8954C3.70374 18.4933 4.05735 19.0364 4.51068 19.4897C4.96401 19.943 5.50705 20.2966 6.105 20.5279C6.80434 20.7898 7.54304 20.9313 8.28968 20.9462C9.24923 20.9897 9.55575 21 12 21C14.4443 21 14.7508 20.9897 15.7107 20.9459C16.4573 20.9309 17.196 20.7894 17.8954 20.5275C18.4933 20.2963 19.0364 19.9426 19.4897 19.4893C19.943 19.036 20.2966 18.493 20.5279 17.895C20.7898 17.1957 20.9313 16.457 20.9462 15.7103C20.9897 14.7508 21 14.4443 21 12C21 9.55575 20.9897 9.24922 20.9459 8.2893C20.9309 7.54279 20.7894 6.80422 20.5275 6.105C20.2962 5.50712 19.9426 4.96415 19.4893 4.51089C19.0359 4.05763 18.4929 3.70407 17.895 3.47287C17.1957 3.21093 16.457 3.06948 15.7103 3.05453C14.7508 3.01035 14.4443 3 12 3Z" fill="#212B36"/>
</g>
</g>
</svg>
