<svg width="38" height="38" viewBox="0 0 38 38" fill="none" xmlns="http://www.w3.org/2000/svg">
<g id="icons/ic_message_circle_outline">
<g id="shape">
<path d="M21.0663 35.625L19 34.4375L23.75 26.125H30.875C31.5049 26.125 32.109 25.8748 32.5544 25.4294C32.9998 24.984 33.25 24.3799 33.25 23.75V9.5C33.25 8.87011 32.9998 8.26602 32.5544 7.82062C32.109 7.37522 31.5049 7.125 30.875 7.125H7.125C6.49511 7.125 5.89102 7.37522 5.44562 7.82062C5.00022 8.26602 4.75 8.87011 4.75 9.5V23.75C4.75 24.3799 5.00022 24.984 5.44562 25.4294C5.89102 25.8748 6.49511 26.125 7.125 26.125H17.8125V28.5H7.125C5.86522 28.5 4.65704 27.9996 3.76624 27.1088C2.87545 26.218 2.375 25.0098 2.375 23.75V9.5C2.375 8.24022 2.87545 7.03204 3.76624 6.14124C4.65704 5.25044 5.86522 4.75 7.125 4.75H30.875C32.1348 4.75 33.343 5.25044 34.2338 6.14124C35.1246 7.03204 35.625 8.24022 35.625 9.5V23.75C35.625 25.0098 35.1246 26.218 34.2338 27.1088C33.343 27.9996 32.1348 28.5 30.875 28.5H25.1275L21.0663 35.625Z" fill="#256CCB"/>
<path d="M28.5 11.875H9.5V14.25H28.5V11.875Z" fill="#256CCB"/>
<path d="M21.375 19H9.5V21.375H21.375V19Z" fill="#256CCB"/>
</g>
</g>
</svg>
