<svg width="19" height="20" viewBox="0 0 19 20" fill="none" xmlns="http://www.w3.org/2000/svg">
<g id="ant-design:message-outlined">
<path id="Vector" d="M8.60936 10C8.60936 10.2362 8.70319 10.4627 8.87022 10.6298C9.03724 10.7968 9.26377 10.8906 9.49998 10.8906C9.73619 10.8906 9.96273 10.7968 10.1297 10.6298C10.2968 10.4627 10.3906 10.2362 10.3906 10C10.3906 9.76379 10.2968 9.53726 10.1297 9.37023C9.96273 9.20321 9.73619 9.10938 9.49998 9.10938C9.26377 9.10938 9.03724 9.20321 8.87022 9.37023C8.70319 9.53726 8.60936 9.76379 8.60936 10ZM12.3203 10C12.3203 10.2362 12.4141 10.4627 12.5812 10.6298C12.7482 10.7968 12.9747 10.8906 13.2109 10.8906C13.4471 10.8906 13.6737 10.7968 13.8407 10.6298C14.0077 10.4627 14.1015 10.2362 14.1015 10C14.1015 9.76379 14.0077 9.53726 13.8407 9.37023C13.6737 9.20321 13.4471 9.10938 13.2109 9.10938C12.9747 9.10938 12.7482 9.20321 12.5812 9.37023C12.4141 9.53726 12.3203 9.76379 12.3203 10ZM4.89842 10C4.89842 10.2362 4.99225 10.4627 5.15928 10.6298C5.3263 10.7968 5.55284 10.8906 5.78905 10.8906C6.02525 10.8906 6.25179 10.7968 6.41881 10.6298C6.58584 10.4627 6.67967 10.2362 6.67967 10C6.67967 9.76379 6.58584 9.53726 6.41881 9.37023C6.25179 9.20321 6.02525 9.10938 5.78905 9.10938C5.55284 9.10938 5.3263 9.20321 5.15928 9.37023C4.99225 9.53726 4.89842 9.76379 4.89842 10ZM17.1668 6.77891C16.7474 5.78252 16.1463 4.88818 15.38 4.12002C14.619 3.3563 13.7157 2.74924 12.7211 2.3332C11.7006 1.90459 10.617 1.6875 9.49998 1.6875H9.46287C8.33846 1.69307 7.2493 1.91572 6.22508 2.35361C5.23901 2.77392 4.34412 3.38206 3.59032 4.14414C2.83143 4.91045 2.23582 5.80107 1.82391 6.79375C1.39715 7.82168 1.18192 8.91455 1.18748 10.039C1.19378 11.3275 1.49863 12.5971 2.07811 13.748V16.5684C2.07811 16.7947 2.16803 17.0118 2.3281 17.1719C2.48816 17.332 2.70526 17.4219 2.93162 17.4219H5.75379C6.90473 18.0014 8.1743 18.3062 9.46287 18.3125H9.50184C10.6133 18.3125 11.6913 18.0973 12.7062 17.6761C13.6958 17.265 14.5958 16.665 15.3558 15.9097C16.1222 15.1508 16.7252 14.2639 17.1464 13.2749C17.5843 12.2507 17.8069 11.1615 17.8125 10.0371C17.8181 8.90713 17.5991 7.81055 17.1668 6.77891ZM14.3632 14.9059C13.0625 16.1936 11.3369 16.9023 9.49998 16.9023H9.46844C8.34959 16.8968 7.23817 16.6185 6.25662 16.0952L6.10076 16.0117H3.48826V13.3992L3.40477 13.2434C2.88153 12.2618 2.60321 11.1504 2.59764 10.0315C2.59022 8.18164 3.29715 6.44492 4.59412 5.13682C5.88924 3.82871 7.62039 3.10508 9.4703 3.09766H9.50184C10.4296 3.09766 11.3295 3.27764 12.1774 3.63389C13.005 3.98086 13.7472 4.47998 14.3854 5.11826C15.0219 5.75469 15.5228 6.49873 15.8698 7.32627C16.2298 8.1835 16.4097 9.09268 16.406 10.0315C16.3949 11.8796 15.6694 13.6107 14.3632 14.9059Z" fill="black"/>
</g>
</svg>
