<svg width="20" height="20" viewBox="0 0 20 20" fill="none" xmlns="http://www.w3.org/2000/svg">
<g id="start icon">
<g id="shape">
<path d="M10 14.375C9.81459 14.375 9.63333 14.43 9.47916 14.533C9.32499 14.636 9.20483 14.7824 9.13387 14.9537C9.06291 15.125 9.04435 15.3135 9.08052 15.4954C9.11669 15.6773 9.20598 15.8443 9.33709 15.9754C9.46821 16.1065 9.63525 16.1958 9.81711 16.232C9.99897 16.2682 10.1875 16.2496 10.3588 16.1786C10.5301 16.1077 10.6765 15.9875 10.7795 15.8334C10.8825 15.6792 10.9375 15.4979 10.9375 15.3125C10.9375 15.0639 10.8387 14.8254 10.6629 14.6496C10.4871 14.4738 10.2486 14.375 10 14.375Z" fill="#256CCB"/>
<path d="M10.625 7.50001H9.37501V13.125H10.625V7.50001Z" fill="#256CCB"/>
<path d="M18.125 18.75H1.875C1.76763 18.75 1.66206 18.7223 1.56848 18.6697C1.4749 18.617 1.39647 18.5411 1.34075 18.4493C1.28502 18.3576 1.25389 18.253 1.25034 18.1456C1.2468 18.0383 1.27096 17.9319 1.3205 17.8366L9.4455 2.21163C9.49828 2.11016 9.57789 2.0251 9.67566 1.96575C9.77344 1.90639 9.88562 1.875 10 1.875C10.1144 1.875 10.2266 1.90639 10.3243 1.96575C10.4221 2.0251 10.5017 2.11016 10.5545 2.21163L18.6795 17.8366C18.729 17.9319 18.7532 18.0383 18.7497 18.1456C18.7461 18.253 18.715 18.3576 18.6593 18.4493C18.6035 18.5411 18.5251 18.617 18.4315 18.6697C18.338 18.7223 18.2324 18.75 18.125 18.75ZM2.90669 17.5H17.0933L17.0946 17.4979L10.0013 3.85713H9.99875L2.90544 17.4979L2.90669 17.5Z" fill="#256CCB"/>
</g>
</g>
</svg>
