<svg width="40" height="40" viewBox="0 0 40 40" fill="#ffffff" xmlns="http://www.w3.org/2000/svg">
<g id="ic:round-diamond">
<g id="shape">
<path d="M19.1504 19.1602L9.63029 28.6809L11.3138 30.3644L20.8338 20.8438L19.1504 19.1602Z" fill="#ffffff"/>
<path d="M21.1913 36.6666C21.0406 36.667 20.8911 36.6387 20.7509 36.5833C20.5559 36.5055 20.3849 36.3776 20.2553 36.2124C20.1256 36.0472 20.042 35.8507 20.0128 35.6428L18.8224 27.3095L21.2032 26.9761L22.096 33.2499L25.9529 30.1428V21.1904C25.952 21.0338 25.9821 20.8784 26.0413 20.7334C26.1005 20.5884 26.1878 20.4564 26.2981 20.3452L31.1431 15.5C32.1414 14.5084 32.9332 13.3286 33.4726 12.029C34.012 10.7294 34.2884 9.33569 34.2857 7.92855V5.71427H32.0716C30.6645 5.7116 29.2709 5.98799 27.9714 6.52745C26.6719 7.06692 25.4922 7.85875 24.5006 8.85712L19.6557 13.7024C19.5445 13.8127 19.4126 13.9 19.2675 13.9592C19.1225 14.0185 18.9672 14.0485 18.8105 14.0476H9.85875L6.75181 17.9285L13.0252 18.8214L12.6919 21.2023L4.35911 20.0119C4.15119 19.9827 3.95469 19.8991 3.78953 19.7694C3.62438 19.6398 3.49644 19.4688 3.41869 19.2738C3.33998 19.0774 3.31504 18.8635 3.34642 18.6543C3.37781 18.4451 3.46439 18.248 3.59725 18.0833L8.35884 12.1309C8.4685 11.9884 8.60901 11.8726 8.76983 11.7922C8.93064 11.7118 9.10758 11.6689 9.28735 11.6666H18.3225L22.8103 7.16665C24.0235 5.94654 25.4668 4.97943 27.0566 4.32141C28.6464 3.66338 30.351 3.32753 32.0716 3.33333H34.2857C34.9171 3.33333 35.5227 3.58417 35.9692 4.03069C36.4157 4.4772 36.6665 5.08281 36.6665 5.71427V7.92855C36.6723 9.64923 36.3365 11.3539 35.6785 12.9438C35.0205 14.5337 34.0535 15.9771 32.8334 17.1904L28.3337 21.6785V30.7142C28.3329 30.893 28.2918 31.0694 28.2135 31.2301C28.1352 31.3909 28.0217 31.5319 27.8814 31.6428L21.9294 36.4047C21.7199 36.5727 21.4598 36.665 21.1913 36.6666Z" fill="#ffffff"/>
</g>
</g>
</svg>
