<svg width="40" height="40" viewBox="0 0 40 40"  xmlns="http://www.w3.org/2000/svg">
<g id="ic:round-diamond">
<path  id="Vector" d="M23.2441 36.6666C24.3894 36.6666 25.2003 35.6808 25.7886 34.1534L36.2053 6.92864C36.4916 6.1968 36.6667 5.54439 36.6667 5.00331C36.6667 3.96937 36.0146 3.33325 34.9806 3.33325C34.4398 3.33325 33.7877 3.49211 33.0563 3.7786L5.70347 14.2633C4.36677 14.7725 3.33337 15.5838 3.33337 16.7453C3.33337 18.209 4.44684 18.7026 5.97352 19.1642L17.4556 22.5369L20.7953 33.8818C21.2723 35.4887 21.7656 36.6666 23.2448 36.6666M18.1721 20.1194L7.19827 16.7616C6.94382 16.6815 6.86443 16.6177 6.86443 16.5064C6.86443 16.395 6.92753 16.3163 7.16638 16.2206L28.6669 8.07392C29.9391 7.59666 31.1639 6.95986 32.3404 6.41879C31.2914 7.27826 29.9873 8.29659 29.1127 9.17168L18.1721 20.1194ZM23.4992 33.1669C23.3723 33.1669 23.3085 33.0549 23.2292 32.8003L19.8732 21.8221L30.8144 10.875C31.6734 10.0155 32.7387 8.67881 33.5821 7.59734C33.0413 8.80576 32.4049 10.0311 31.9123 11.3204L23.7699 32.8322C23.6743 33.0712 23.6105 33.1669 23.4992 33.1669Z" />
</g>
</svg>
