<svg width="40" height="40" viewBox="0 0 40 40" fill="none" xmlns="http://www.w3.org/2000/svg">
<g id="ic:round-diamond">
<path id="Vector (Stroke)" fill-rule="evenodd" clip-rule="evenodd" d="M31.3514 3.70376C32.8764 3.23453 34.4933 3.16169 35.7171 3.77361C35.9374 3.88376 36.1161 4.0624 36.2262 4.28271C36.8382 5.50654 36.7653 7.12345 36.2961 8.64847C35.814 10.2152 34.8622 11.8703 33.4516 13.2809L27.9156 18.8169L30.8557 32.2105L30.8601 32.2313C31.1329 33.5953 30.5361 34.692 29.573 35.4144C29.4931 35.4743 29.4056 35.5235 29.3128 35.5606L28.459 35.9021C27.2279 36.3946 25.7873 36.1914 24.9057 35.0159C24.892 34.9977 24.8789 34.9792 24.8664 34.9602L19.52 26.8642L15.8555 29.3071V33.8206C15.8555 34.1225 15.7356 34.4121 15.5221 34.6256L13.8145 36.3332C13.5733 36.5743 13.2367 36.6946 12.8974 36.661C12.558 36.6274 12.2515 36.4434 12.0623 36.1597L8.77347 31.2264L3.84018 27.9375C3.55641 27.7483 3.3724 27.4419 3.3388 27.1025C3.30519 26.7631 3.42552 26.4265 3.66668 26.1854L5.37426 24.4778C5.58775 24.2643 5.8773 24.1443 6.17922 24.1443H10.6927L13.1357 20.4799L5.03963 15.1334C5.02067 15.1209 5.00209 15.1078 4.98392 15.0942C3.80841 14.2126 3.60526 12.772 4.09771 11.5408C4.12026 11.4845 4.14728 11.43 4.17852 11.3779L4.67089 10.5573C5.26533 9.41415 6.46238 8.87854 7.76854 9.13978L7.78936 9.14414L21.183 12.0842L26.719 6.54821C28.1296 5.13761 29.7846 4.18583 31.3514 3.70376ZM32.0209 5.87985C30.8128 6.25157 29.4797 7.00737 28.3289 8.15813L22.3524 14.1347C22.0779 14.4091 21.6825 14.5248 21.3033 14.4416L7.31322 11.3706C7.09504 11.3285 6.96491 11.3619 6.89542 11.3944C6.82729 11.4262 6.75094 11.4874 6.68515 11.6189C6.67212 11.645 6.65809 11.6706 6.6431 11.6955L6.18392 12.4608C6.04153 12.8748 6.15992 13.1187 6.32981 13.257L15.3444 19.2101C15.5971 19.3769 15.7729 19.6375 15.8329 19.9343C15.8929 20.2311 15.8323 20.5395 15.6643 20.7915L12.2491 25.9142C12.038 26.2309 11.6826 26.4211 11.302 26.4211H6.65076L6.2585 26.8134L10.2258 29.4583C10.3509 29.5416 10.4582 29.6489 10.5416 29.774L13.1865 33.7413L13.5787 33.3491V28.6979C13.5787 28.3173 13.7689 27.9618 14.0856 27.7507L19.2084 24.3355C19.4603 24.1676 19.7688 24.1069 20.0655 24.1669C20.3623 24.227 20.6229 24.4028 20.7898 24.6554L26.7428 33.67C26.8893 33.8499 27.154 33.972 27.6134 33.7882L28.312 33.5087C28.6218 33.2421 28.6885 32.9939 28.6292 32.6866L25.5582 18.6965C25.475 18.3174 25.5907 17.9219 25.8652 17.6475L31.8417 11.6709C32.9925 10.5202 33.7483 9.18699 34.12 7.9789C34.3195 7.33034 34.3959 6.76399 34.3894 6.30159C34.3841 5.91805 34.0818 5.61578 33.6982 5.6104C33.2358 5.60391 32.6695 5.68029 32.0209 5.87985Z" fill="black"/>
</g>
</svg>
