<svg width="30" height="30" viewBox="0 0 30 30" fill="none" xmlns="http://www.w3.org/2000/svg">
<g id="icons/ic_user_follow" clip-path="url(#clip0_5362_133745)">
<path id="shape" d="M30.15 13.125V12.975H30H26.4V9.375V9.225H26.25L24.375 9.225H24.225V9.375V12.975H20.625H20.475V13.125V15V15.15H20.625H24.225V18.75V18.9H24.375H26.25H26.4V18.75V15.15H30H30.15V15V13.125ZM20.625 28.275H20.775V28.125V23.4375C20.775 21.6572 20.0678 19.9499 18.809 18.691C17.5501 17.4322 15.8428 16.725 14.0625 16.725H8.4375C6.65723 16.725 4.94988 17.4322 3.69105 18.691C2.43221 19.9499 1.725 21.6572 1.725 23.4375L1.725 28.125L1.725 28.275H1.875H3.75H3.9V28.125V23.4375C3.9 22.2341 4.37806 21.08 5.229 20.229C6.07995 19.3781 7.23408 18.9 8.4375 18.9H14.0625C15.2659 18.9 16.4201 19.3781 17.271 20.229C18.1219 21.08 18.6 22.2341 18.6 23.4375V28.125V28.275H18.75H20.625ZM11.25 3.9C12.1474 3.9 13.0247 4.16612 13.7709 4.66471C14.5171 5.16329 15.0987 5.87195 15.4421 6.70107C15.7855 7.53019 15.8754 8.44253 15.7003 9.32272C15.5252 10.2029 15.0931 11.0114 14.4585 11.646C13.8239 12.2806 13.0154 12.7127 12.1352 12.8878C11.255 13.0629 10.3427 12.973 9.51357 12.6296C8.68445 12.2862 7.97579 11.7046 7.47721 10.9584C6.97862 10.2122 6.7125 9.33493 6.7125 8.4375C6.7125 7.23408 7.19056 6.07995 8.0415 5.229C8.89245 4.37806 10.0466 3.9 11.25 3.9ZM11.25 1.725C9.92239 1.725 8.6246 2.11868 7.52073 2.85626C6.41687 3.59384 5.55651 4.64219 5.04846 5.86874C4.5404 7.09529 4.40747 8.44495 4.66648 9.74704C4.92548 11.0491 5.56478 12.2452 6.50354 13.184C7.4423 14.1227 8.63836 14.762 9.94046 15.021C11.2426 15.28 12.5922 15.1471 13.8188 14.639C15.0453 14.131 16.0937 13.2706 16.8312 12.1668C17.5688 11.0629 17.9625 9.76511 17.9625 8.4375C17.9625 6.65723 17.2553 4.94988 15.9965 3.69105C14.7376 2.43221 13.0303 1.725 11.25 1.725Z" fill="#141414" stroke="#141414" stroke-width="0.3"/>
</g>
<defs>
<clipPath id="clip0_5362_133745">
<rect width="30" height="30" fill="white"/>
</clipPath>
</defs>
</svg>
