<svg width="30" height="30" viewBox="0 0 30 30" fill="none" xmlns="http://www.w3.org/2000/svg">
<g id="mdi:business">
<path id="Vector" d="M23.4 19.3333H20.6V22.2222H23.4M23.4 13.5556H20.6V16.4444H23.4M26.2 25.1111H15V22.2222H17.8V19.3333H15V16.4444H17.8V13.5556H15V10.6667H26.2M12.2 7.77778H9.4V4.88889H12.2M12.2 13.5556H9.4V10.6667H12.2M12.2 19.3333H9.4V16.4444H12.2M12.2 25.1111H9.4V22.2222H12.2M6.6 7.77778H3.8V4.88889H6.6M6.6 13.5556H3.8V10.6667H6.6M6.6 19.3333H3.8V16.4444H6.6M6.6 25.1111H3.8V22.2222H6.6M15 7.77778V2H1V28H29V7.77778H15Z" fill="#141414"/>
</g>
</svg>
