<svg width="28" height="28" viewBox="0 0 28 28" fill="none" xmlns="http://www.w3.org/2000/svg">
<g id="oui:document">
<path id="Vector" d="M18.9 0C19.3795 0 19.8398 0.19775 20.1705 0.546L25.7705 6.545C26.0785 6.8705 26.25 7.30275 26.25 7.75075V26.25C26.25 26.7141 26.0656 27.1592 25.7374 27.4874C25.4092 27.8156 24.9641 28 24.5 28H3.5C3.03587 28 2.59075 27.8156 2.26256 27.4874C1.93437 27.1592 1.75 26.7141 1.75 26.25V1.75C1.75 1.28587 1.93437 0.840752 2.26256 0.512563C2.59075 0.184374 3.03587 0 3.5 0L18.9 0ZM24.5 8.75H18.375C18.1429 8.75 17.9204 8.65781 17.7563 8.49372C17.5922 8.32962 17.5 8.10706 17.5 7.875V1.75H3.5V26.25H24.5V8.75ZM9.625 21C9.39294 21 9.17038 20.9078 9.00628 20.7437C8.84219 20.5796 8.75 20.3571 8.75 20.125C8.75 19.8929 8.84219 19.6704 9.00628 19.5063C9.17038 19.3422 9.39294 19.25 9.625 19.25H18.375C18.6071 19.25 18.8296 19.3422 18.9937 19.5063C19.1578 19.6704 19.25 19.8929 19.25 20.125C19.25 20.3571 19.1578 20.5796 18.9937 20.7437C18.8296 20.9078 18.6071 21 18.375 21H9.625ZM9.625 15.75C9.39294 15.75 9.17038 15.6578 9.00628 15.4937C8.84219 15.3296 8.75 15.1071 8.75 14.875C8.75 14.6429 8.84219 14.4204 9.00628 14.2563C9.17038 14.0922 9.39294 14 9.625 14H18.375C18.6071 14 18.8296 14.0922 18.9937 14.2563C19.1578 14.4204 19.25 14.6429 19.25 14.875C19.25 15.1071 19.1578 15.3296 18.9937 15.4937C18.8296 15.6578 18.6071 15.75 18.375 15.75H9.625Z" fill="#141414"/>
</g>
</svg>
