<svg width="20" height="20" viewBox="0 0 20 20" fill="none" xmlns="http://www.w3.org/2000/svg">
<g id="icons/ic_link">
<path id="Vector" d="M8.3335 10.9503C8.6631 11.394 9.08362 11.7612 9.56652 12.0269C10.0494 12.2926 10.5834 12.4505 11.1323 12.4901C11.6812 12.5297 12.2321 12.45 12.7476 12.2563C13.2632 12.0626 13.7314 11.7596 14.1204 11.3677L16.4229 9.04902C17.122 8.32019 17.5088 7.34404 17.5 6.33081C17.4913 5.31758 17.0877 4.34834 16.3762 3.63185C15.6647 2.91536 14.7022 2.50895 13.696 2.50015C12.6898 2.49134 11.7205 2.88085 10.9967 3.58478L9.67662 4.9064" stroke="#373737" stroke-width="1.5" stroke-linecap="round" stroke-linejoin="round"/>
<path id="Vector_2" d="M11.6667 9.0497C11.3371 8.60597 10.9165 8.23881 10.4336 7.97313C9.95074 7.70745 9.41674 7.54946 8.86787 7.50987C8.319 7.47029 7.76809 7.55004 7.25252 7.74371C6.73694 7.93738 6.26876 8.24045 5.87973 8.63235L3.57723 10.951C2.8782 11.6798 2.4914 12.656 2.50015 13.6692C2.50889 14.6824 2.91247 15.6517 3.62398 16.3681C4.33548 17.0846 5.29797 17.491 6.30415 17.4999C7.31033 17.5087 8.27969 17.1192 9.00345 16.4152L10.3159 15.0936" stroke="#373737" stroke-width="1.5" stroke-linecap="round" stroke-linejoin="round"/>
</g>
</svg>
